<?xml version="1.0" encoding="UTF-8"?>
<svg xmlns="http://www.w3.org/2000/svg" width="121" height="24" viewBox="0 0 121 24" fill="none">
  <mask id="path-1-outside-1" maskUnits="userSpaceOnUse" x="0" y="0" width="121" height="24" fill="black">
    <rect fill="white" width="121" height="24"></rect>
    <path fill-rule="evenodd" clip-rule="evenodd" d="M7.8303 1L1 4.97952V15.6416L6.12273 18.6451L1 21.5734V23L7.31061 19.2457L13.6212 23V21.5734L8.49849 18.6451L13.6212 15.6416V9.93515L7.8303 6.55631V1ZM6.71667 3.0273L2.26212 5.65529V9.93515L7.90455 13.2389V17.5939L12.3591 14.9659V10.6109L6.71667 7.30717V3.0273ZM2.26212 11.3618L6.71667 13.9898V17.5939L2.26212 14.9659V11.3618Z"></path>
    <path d="M29.0821 4.83463C29.9909 4.83463 30.8688 5.00848 31.7159 5.35616C32.563 5.68874 33.31 6.18003 33.9569 6.83006C35.3893 8.26615 36.1055 10.1028 36.1055 12.3401C36.1055 14.5774 35.3893 16.4141 33.9569 17.8502C33.31 18.5002 32.563 18.9991 31.7159 19.3468C30.8688 19.6793 29.9909 19.8456 29.0821 19.8456H22.6364V4.83463H29.0821ZM29.0128 18.2357C30.6147 18.2357 31.9161 17.6537 32.9173 16.4897C33.8876 15.3711 34.3728 13.9879 34.3728 12.3401C34.3728 10.6924 33.8876 9.30921 32.9173 8.19057C31.9161 7.02657 30.6147 6.44458 29.0128 6.44458H24.3691V18.2357H29.0128Z"></path>
    <path d="M43.6857 18.4851C45.2413 18.4851 46.3579 17.8502 47.0356 16.5804H48.9301C48.5296 17.6083 47.8904 18.4398 47.0125 19.0747C46.15 19.7096 45.0333 20.027 43.6626 20.027C41.9221 20.027 40.5051 19.4601 39.4116 18.3264C38.3488 17.2229 37.8175 15.8397 37.8175 14.1768C37.8175 12.4989 38.3257 11.1157 39.3423 10.0273C40.4204 8.8935 41.822 8.32662 43.547 8.32662C45.2721 8.32662 46.6737 8.8935 47.7518 10.0273C48.7684 11.1157 49.2766 12.4989 49.2766 14.1768V14.8571H39.5964C39.7196 15.9001 40.1432 16.7618 40.8671 17.4421C41.6064 18.1374 42.5459 18.4851 43.6857 18.4851ZM43.547 9.86853C42.4843 9.86853 41.591 10.1935 40.8671 10.8436C40.1894 11.4634 39.7735 12.2721 39.6195 13.2698H47.4746C47.3206 12.2721 46.9047 11.4634 46.227 10.8436C45.5031 10.1935 44.6098 9.86853 43.547 9.86853Z"></path>
    <path d="M52.506 19.8456V10.0046H50.1495V8.50802H52.506V4.44916H54.2387V8.50802H56.8956V10.0046H54.2387V19.8456H52.506Z"></path>
    <path d="M67.5786 18.0316C66.6545 19.3619 65.276 20.027 63.4432 20.027C61.7797 20.027 60.4244 19.4601 59.377 18.3264C58.3605 17.2077 57.8522 15.8246 57.8522 14.1768C57.8522 12.5291 58.3605 11.1459 59.377 10.0273C60.4244 8.8935 61.8183 8.32662 63.5587 8.32662C65.2991 8.32662 66.6391 8.99932 67.5786 10.3447V8.50802H69.3114V19.8456H67.5786V18.0316ZM63.6742 18.4851C64.9218 18.4851 65.9075 18.0618 66.6314 17.2153C67.3245 16.4141 67.6711 15.4013 67.6711 14.1768C67.6711 12.9524 67.3245 11.9395 66.6314 11.1383C65.9075 10.2918 64.9218 9.86853 63.6742 9.86853C62.442 9.86853 61.4409 10.2918 60.6708 11.1383C59.9469 11.9395 59.5849 12.9524 59.5849 14.1768C59.5849 15.4013 59.9469 16.4141 60.6708 17.2153C61.4409 18.0618 62.442 18.4851 63.6742 18.4851Z"></path>
    <path d="M74.0412 19.8456H72.3085V3.97298H74.0412V19.8456Z"></path>
    <path d="M77.0464 8.50802H78.7791V19.8456H77.0464V8.50802ZM78.8484 4.38113V6.6033H76.9771V4.38113H78.8484Z"></path>
    <path d="M87.8836 8.32662V10.0273H87.6757C86.4281 10.0273 85.4115 10.5186 84.626 11.5011C83.8867 12.4384 83.5171 13.557 83.5171 14.8571V19.8456H81.7843V8.50802H83.5171V11.2971C83.8867 10.118 84.6876 9.24874 85.9198 8.68942C86.4281 8.44755 87.0442 8.32662 87.7681 8.32662H87.8836Z"></path>
    <path d="M98.0889 19.8456V18.077C97.673 18.6212 97.1647 19.0822 96.564 19.4601C95.9634 19.8381 95.278 20.027 94.5079 20.027C93.7378 20.027 93.0755 19.9212 92.521 19.7096C91.9665 19.4979 91.4813 19.1805 91.0655 18.7572C90.1106 17.8351 89.6331 16.6182 89.6331 15.1065V8.50802H91.3658V15.0612C91.3658 16.1042 91.6662 16.9356 92.2669 17.5554C92.8675 18.1752 93.6453 18.4851 94.6003 18.4851C95.5706 18.4851 96.3946 18.1677 97.0723 17.5328C97.75 16.8827 98.0889 16.0513 98.0889 15.0385V8.50802H99.8216V19.8456H98.0889Z"></path>
    <path d="M104.567 10.2313C105.337 8.96152 106.508 8.32662 108.079 8.32662C108.849 8.32662 109.557 8.5307 110.204 8.93885C110.867 9.33189 111.383 9.89121 111.752 10.6168C112.276 9.66446 113.092 8.9842 114.201 8.57605C114.648 8.40976 115.148 8.32662 115.703 8.32662C116.273 8.32662 116.812 8.43999 117.32 8.66675C117.844 8.87838 118.306 9.18828 118.706 9.59643C119.569 10.5034 120 11.6372 120 12.9977V19.8456H118.267V13.0431C118.267 12.1058 117.998 11.3349 117.459 10.7302C116.92 10.1558 116.234 9.86853 115.402 9.86853C114.525 9.86853 113.793 10.1482 113.208 10.7075C112.592 11.282 112.284 12.068 112.284 13.0657V19.8456H110.551V13.0431C110.551 12.1058 110.281 11.3349 109.742 10.7302C109.203 10.1558 108.518 9.86853 107.686 9.86853C106.808 9.86853 106.077 10.1482 105.491 10.7075C104.875 11.282 104.567 12.068 104.567 13.0657V19.8456H102.834V8.50802H104.567V10.2313Z"></path>
  </mask>
  <path fill-rule="evenodd" clip-rule="evenodd" d="M7.8303 1L1 4.97952V15.6416L6.12273 18.6451L1 21.5734V23L7.31061 19.2457L13.6212 23V21.5734L8.49849 18.6451L13.6212 15.6416V9.93515L7.8303 6.55631V1ZM6.71667 3.0273L2.26212 5.65529V9.93515L7.90455 13.2389V17.5939L12.3591 14.9659V10.6109L6.71667 7.30717V3.0273ZM2.26212 11.3618L6.71667 13.9898V17.5939L2.26212 14.9659V11.3618Z" fill="#222222"></path>
  <path d="M29.0821 4.83463C29.9909 4.83463 30.8688 5.00848 31.7159 5.35616C32.563 5.68874 33.31 6.18003 33.9569 6.83006C35.3893 8.26615 36.1055 10.1028 36.1055 12.3401C36.1055 14.5774 35.3893 16.4141 33.9569 17.8502C33.31 18.5002 32.563 18.9991 31.7159 19.3468C30.8688 19.6793 29.9909 19.8456 29.0821 19.8456H22.6364V4.83463H29.0821ZM29.0128 18.2357C30.6147 18.2357 31.9161 17.6537 32.9173 16.4897C33.8876 15.3711 34.3728 13.9879 34.3728 12.3401C34.3728 10.6924 33.8876 9.30921 32.9173 8.19057C31.9161 7.02657 30.6147 6.44458 29.0128 6.44458H24.3691V18.2357H29.0128Z" fill="#222222"></path>
  <path d="M43.6857 18.4851C45.2413 18.4851 46.3579 17.8502 47.0356 16.5804H48.9301C48.5296 17.6083 47.8904 18.4398 47.0125 19.0747C46.15 19.7096 45.0333 20.027 43.6626 20.027C41.9221 20.027 40.5051 19.4601 39.4116 18.3264C38.3488 17.2229 37.8175 15.8397 37.8175 14.1768C37.8175 12.4989 38.3257 11.1157 39.3423 10.0273C40.4204 8.8935 41.822 8.32662 43.547 8.32662C45.2721 8.32662 46.6737 8.8935 47.7518 10.0273C48.7684 11.1157 49.2766 12.4989 49.2766 14.1768V14.8571H39.5964C39.7196 15.9001 40.1432 16.7618 40.8671 17.4421C41.6064 18.1374 42.5459 18.4851 43.6857 18.4851ZM43.547 9.86853C42.4843 9.86853 41.591 10.1935 40.8671 10.8436C40.1894 11.4634 39.7735 12.2721 39.6195 13.2698H47.4746C47.3206 12.2721 46.9047 11.4634 46.227 10.8436C45.5031 10.1935 44.6098 9.86853 43.547 9.86853Z" fill="#222222"></path>
  <path d="M52.506 19.8456V10.0046H50.1495V8.50802H52.506V4.44916H54.2387V8.50802H56.8956V10.0046H54.2387V19.8456H52.506Z" fill="#222222"></path>
  <path d="M67.5786 18.0316C66.6545 19.3619 65.276 20.027 63.4432 20.027C61.7797 20.027 60.4244 19.4601 59.377 18.3264C58.3605 17.2077 57.8522 15.8246 57.8522 14.1768C57.8522 12.5291 58.3605 11.1459 59.377 10.0273C60.4244 8.8935 61.8183 8.32662 63.5587 8.32662C65.2991 8.32662 66.6391 8.99932 67.5786 10.3447V8.50802H69.3114V19.8456H67.5786V18.0316ZM63.6742 18.4851C64.9218 18.4851 65.9075 18.0618 66.6314 17.2153C67.3245 16.4141 67.6711 15.4013 67.6711 14.1768C67.6711 12.9524 67.3245 11.9395 66.6314 11.1383C65.9075 10.2918 64.9218 9.86853 63.6742 9.86853C62.442 9.86853 61.4409 10.2918 60.6708 11.1383C59.9469 11.9395 59.5849 12.9524 59.5849 14.1768C59.5849 15.4013 59.9469 16.4141 60.6708 17.2153C61.4409 18.0618 62.442 18.4851 63.6742 18.4851Z" fill="#222222"></path>
  <path d="M74.0412 19.8456H72.3085V3.97298H74.0412V19.8456Z" fill="#222222"></path>
  <path d="M77.0464 8.50802H78.7791V19.8456H77.0464V8.50802ZM78.8484 4.38113V6.6033H76.9771V4.38113H78.8484Z" fill="#222222"></path>
  <path d="M87.8836 8.32662V10.0273H87.6757C86.4281 10.0273 85.4115 10.5186 84.626 11.5011C83.8867 12.4384 83.5171 13.557 83.5171 14.8571V19.8456H81.7843V8.50802H83.5171V11.2971C83.8867 10.118 84.6876 9.24874 85.9198 8.68942C86.4281 8.44755 87.0442 8.32662 87.7681 8.32662H87.8836Z" fill="#222222"></path>
  <path d="M98.0889 19.8456V18.077C97.673 18.6212 97.1647 19.0822 96.564 19.4601C95.9634 19.8381 95.278 20.027 94.5079 20.027C93.7378 20.027 93.0755 19.9212 92.521 19.7096C91.9665 19.4979 91.4813 19.1805 91.0655 18.7572C90.1106 17.8351 89.6331 16.6182 89.6331 15.1065V8.50802H91.3658V15.0612C91.3658 16.1042 91.6662 16.9356 92.2669 17.5554C92.8675 18.1752 93.6453 18.4851 94.6003 18.4851C95.5706 18.4851 96.3946 18.1677 97.0723 17.5328C97.75 16.8827 98.0889 16.0513 98.0889 15.0385V8.50802H99.8216V19.8456H98.0889Z" fill="#222222"></path>
  <path d="M104.567 10.2313C105.337 8.96152 106.508 8.32662 108.079 8.32662C108.849 8.32662 109.557 8.5307 110.204 8.93885C110.867 9.33189 111.383 9.89121 111.752 10.6168C112.276 9.66446 113.092 8.9842 114.201 8.57605C114.648 8.40976 115.148 8.32662 115.703 8.32662C116.273 8.32662 116.812 8.43999 117.32 8.66675C117.844 8.87838 118.306 9.18828 118.706 9.59643C119.569 10.5034 120 11.6372 120 12.9977V19.8456H118.267V13.0431C118.267 12.1058 117.998 11.3349 117.459 10.7302C116.92 10.1558 116.234 9.86853 115.402 9.86853C114.525 9.86853 113.793 10.1482 113.208 10.7075C112.592 11.282 112.284 12.068 112.284 13.0657V19.8456H110.551V13.0431C110.551 12.1058 110.281 11.3349 109.742 10.7302C109.203 10.1558 108.518 9.86853 107.686 9.86853C106.808 9.86853 106.077 10.1482 105.491 10.7075C104.875 11.282 104.567 12.068 104.567 13.0657V19.8456H102.834V8.50802H104.567V10.2313Z" fill="#222222"></path>
  <path d="M1 4.97952L0.949658 4.89312L0.9 4.92205V4.97952H1ZM7.8303 1H7.9303V0.826002L7.77996 0.913596L7.8303 1ZM1 15.6416H0.9V15.6989L0.949423 15.7279L1 15.6416ZM6.12273 18.6451L6.17235 18.7319L6.32231 18.6461L6.1733 18.5588L6.12273 18.6451ZM1 21.5734L0.950373 21.4866L0.9 21.5154V21.5734H1ZM1 23H0.9V23.1758L1.05113 23.0859L1 23ZM7.31061 19.2457L7.36173 19.1598L7.31061 19.1294L7.25948 19.1598L7.31061 19.2457ZM13.6212 23L13.5701 23.0859L13.7212 23.1758V23H13.6212ZM13.6212 21.5734H13.7212V21.5154L13.6708 21.4866L13.6212 21.5734ZM8.49849 18.6451L8.44791 18.5588L8.2989 18.6461L8.44886 18.7319L8.49849 18.6451ZM13.6212 15.6416L13.6718 15.7279L13.7212 15.6989V15.6416H13.6212ZM13.6212 9.93515H13.7212V9.87772L13.6716 9.84878L13.6212 9.93515ZM7.8303 6.55631H7.7303V6.61374L7.77991 6.64269L7.8303 6.55631ZM2.26212 5.65529L2.21131 5.56916L2.16212 5.59818V5.65529H2.26212ZM6.71667 3.0273H6.81667V2.8522L6.66585 2.94118L6.71667 3.0273ZM2.26212 9.93515H2.16212V9.99248L2.21159 10.0215L2.26212 9.93515ZM7.90455 13.2389H8.00455V13.1816L7.95507 13.1526L7.90455 13.2389ZM7.90455 17.5939H7.80455V17.769L7.95536 17.68L7.90455 17.5939ZM12.3591 14.9659L12.4099 15.052L12.4591 15.023V14.9659H12.3591ZM12.3591 10.6109H12.4591V10.5536L12.4096 10.5246L12.3591 10.6109ZM6.71667 7.30717H6.61667V7.3645L6.66614 7.39346L6.71667 7.30717ZM6.71667 13.9898H6.81667V13.9327L6.76748 13.9036L6.71667 13.9898ZM2.26212 11.3618L2.31293 11.2756L2.16212 11.1867V11.3618H2.26212ZM6.71667 17.5939L6.66585 17.68L6.81667 17.769V17.5939H6.71667ZM2.26212 14.9659H2.16212V15.023L2.21131 15.052L2.26212 14.9659ZM31.7159 5.35616L31.6779 5.44869L31.6794 5.44925L31.7159 5.35616ZM33.9569 6.83006L33.886 6.90059L33.8861 6.90067L33.9569 6.83006ZM33.9569 17.8502L33.8861 17.7796L33.886 17.7797L33.9569 17.8502ZM31.7159 19.3468L31.7524 19.4399L31.7539 19.4393L31.7159 19.3468ZM22.6364 19.8456H22.5364V19.9456H22.6364V19.8456ZM22.6364 4.83463V4.73463H22.5364V4.83463H22.6364ZM32.9173 16.4897L32.8417 16.4242L32.8414 16.4245L32.9173 16.4897ZM32.9173 8.19057L32.8414 8.25578L32.8417 8.25609L32.9173 8.19057ZM24.3691 6.44458V6.34458H24.2691V6.44458H24.3691ZM24.3691 18.2357H24.2691V18.3357H24.3691V18.2357ZM47.0356 16.5804V16.4804H46.9756L46.9474 16.5333L47.0356 16.5804ZM48.9301 16.5804L49.0233 16.6167L49.0764 16.4804H48.9301V16.5804ZM47.0125 19.0747L46.9539 18.9936L46.9532 18.9941L47.0125 19.0747ZM39.4116 18.3264L39.3396 18.3958L39.3396 18.3958L39.4116 18.3264ZM39.3423 10.0273L39.2698 9.95835L39.2692 9.959L39.3423 10.0273ZM47.7518 10.0273L47.8249 9.959L47.8243 9.95835L47.7518 10.0273ZM49.2766 14.8571V14.9571H49.3766V14.8571H49.2766ZM39.5964 14.8571V14.7571H39.4839L39.4971 14.8688L39.5964 14.8571ZM40.8671 17.4421L40.9356 17.3692L40.9356 17.3692L40.8671 17.4421ZM40.8671 10.8436L40.8003 10.7692L40.7996 10.7698L40.8671 10.8436ZM39.6195 13.2698L39.5207 13.2546L39.5029 13.3698H39.6195V13.2698ZM47.4746 13.2698V13.3698H47.5912L47.5734 13.2546L47.4746 13.2698ZM46.227 10.8436L46.2945 10.7698L46.2938 10.7692L46.227 10.8436ZM52.506 19.8456H52.406V19.9456H52.506V19.8456ZM52.506 10.0046H52.606V9.90458H52.506V10.0046ZM50.1495 10.0046H50.0495V10.1046H50.1495V10.0046ZM50.1495 8.50802V8.40802H50.0495V8.50802H50.1495ZM52.506 8.50802V8.60802H52.606V8.50802H52.506ZM52.506 4.44916V4.34916H52.406V4.44916H52.506ZM54.2387 4.44916H54.3387V4.34916H54.2387V4.44916ZM54.2387 8.50802H54.1387V8.60802H54.2387V8.50802ZM56.8956 8.50802H56.9956V8.40802H56.8956V8.50802ZM56.8956 10.0046V10.1046H56.9956V10.0046H56.8956ZM54.2387 10.0046V9.90458H54.1387V10.0046H54.2387ZM54.2387 19.8456V19.9456H54.3387V19.8456H54.2387ZM67.5786 18.0316H67.6786V17.7124L67.4965 17.9746L67.5786 18.0316ZM59.377 18.3264L59.303 18.3936L59.3036 18.3942L59.377 18.3264ZM59.377 10.0273L59.3036 9.9594L59.303 9.96001L59.377 10.0273ZM67.5786 10.3447L67.4966 10.402L67.6786 10.6626V10.3447H67.5786ZM67.5786 8.50802V8.40802H67.4786V8.50802H67.5786ZM69.3114 8.50802H69.4114V8.40802H69.3114V8.50802ZM69.3114 19.8456V19.9456H69.4114V19.8456H69.3114ZM67.5786 19.8456H67.4786V19.9456H67.5786V19.8456ZM66.6314 17.2153L66.5558 17.1499L66.5554 17.1503L66.6314 17.2153ZM66.6314 11.1383L66.5554 11.2033L66.5558 11.2038L66.6314 11.1383ZM60.6708 11.1383L60.5968 11.0711L60.5966 11.0713L60.6708 11.1383ZM60.6708 17.2153L60.5966 17.2823L60.5968 17.2826L60.6708 17.2153ZM74.0412 19.8456V19.9456H74.1412V19.8456H74.0412ZM72.3085 19.8456H72.2085V19.9456H72.3085V19.8456ZM72.3085 3.97298V3.87298H72.2085V3.97298H72.3085ZM74.0412 3.97298H74.1412V3.87298H74.0412V3.97298ZM77.0464 8.50802V8.40802H76.9464V8.50802H77.0464ZM78.7791 8.50802H78.8791V8.40802H78.7791V8.50802ZM78.7791 19.8456V19.9456H78.8791V19.8456H78.7791ZM77.0464 19.8456H76.9464V19.9456H77.0464V19.8456ZM78.8484 4.38113H78.9484V4.28113H78.8484V4.38113ZM78.8484 6.6033V6.7033H78.9484V6.6033H78.8484ZM76.9771 6.6033H76.8771V6.7033H76.9771V6.6033ZM76.9771 4.38113V4.28113H76.8771V4.38113H76.9771ZM87.8836 8.32662H87.9836V8.22662H87.8836V8.32662ZM87.8836 10.0273V10.1273H87.9836V10.0273H87.8836ZM84.626 11.5011L84.5479 11.4387L84.5475 11.4392L84.626 11.5011ZM83.5171 19.8456V19.9456H83.6171V19.8456H83.5171ZM81.7843 19.8456H81.6843V19.9456H81.7843V19.8456ZM81.7843 8.50802V8.40802H81.6843V8.50802H81.7843ZM83.5171 8.50802H83.6171V8.40802H83.5171V8.50802ZM83.5171 11.2971H83.4171L83.6125 11.327L83.5171 11.2971ZM85.9198 8.68942L85.9612 8.7805L85.9628 8.77972L85.9198 8.68942ZM98.0889 19.8456H97.9889V19.9456H98.0889V19.8456ZM98.0889 18.077H98.1889V17.7814L98.0094 18.0162L98.0889 18.077ZM92.521 19.7096L92.4853 19.803L92.521 19.7096ZM91.0655 18.7572L91.1368 18.6871L91.135 18.6853L91.0655 18.7572ZM89.6331 8.50802V8.40802H89.5331V8.50802H89.6331ZM91.3658 8.50802H91.4658V8.40802H91.3658V8.50802ZM97.0723 17.5328L97.1407 17.6057L97.1415 17.6049L97.0723 17.5328ZM98.0889 8.50802V8.40802H97.9889V8.50802H98.0889ZM99.8216 8.50802H99.9216V8.40802H99.8216V8.50802ZM99.8216 19.8456V19.9456H99.9216V19.8456H99.8216ZM104.567 10.2313H104.467V10.5891L104.653 10.2832L104.567 10.2313ZM110.204 8.93885L110.151 9.02345L110.153 9.02485L110.204 8.93885ZM111.752 10.6168L111.663 10.6622L111.749 10.8305L111.84 10.665L111.752 10.6168ZM114.201 8.57605L114.236 8.66989L114.236 8.66976L114.201 8.57605ZM117.32 8.66675L117.279 8.75813L117.283 8.75946L117.32 8.66675ZM118.706 9.59643L118.779 9.52751L118.778 9.5264L118.706 9.59643ZM120 19.8456V19.9456H120.1V19.8456H120ZM118.267 19.8456H118.167V19.9456H118.267V19.8456ZM117.459 10.7302L117.533 10.6636L117.532 10.6618L117.459 10.7302ZM113.208 10.7075L113.276 10.7807L113.277 10.7798L113.208 10.7075ZM112.284 19.8456V19.9456H112.384V19.8456H112.284ZM110.551 19.8456H110.451V19.9456H110.551V19.8456ZM109.742 10.7302L109.817 10.6636L109.815 10.6618L109.742 10.7302ZM105.491 10.7075L105.559 10.7807L105.56 10.7798L105.491 10.7075ZM104.567 19.8456V19.9456H104.667V19.8456H104.567ZM102.834 19.8456H102.734V19.9456H102.834V19.8456ZM102.834 8.50802V8.40802H102.734V8.50802H102.834ZM104.567 8.50802H104.667V8.40802H104.567V8.50802ZM1.05034 5.06593L7.88064 1.0864L7.77996 0.913596L0.949658 4.89312L1.05034 5.06593ZM1.1 15.6416V4.97952H0.9V15.6416H1.1ZM6.1733 18.5588L1.05058 15.5554L0.949423 15.7279L6.07215 18.7313L6.1733 18.5588ZM1.04963 21.6602L6.17235 18.7319L6.0731 18.5582L0.950373 21.4866L1.04963 21.6602ZM1.1 23V21.5734H0.9V23H1.1ZM7.25948 19.1598L0.948872 22.9141L1.05113 23.0859L7.36173 19.3317L7.25948 19.1598ZM13.6723 22.9141L7.36173 19.1598L7.25948 19.3317L13.5701 23.0859L13.6723 22.9141ZM13.5212 21.5734V23H13.7212V21.5734H13.5212ZM8.44886 18.7319L13.5716 21.6602L13.6708 21.4866L8.54811 18.5582L8.44886 18.7319ZM13.5706 15.5554L8.44791 18.5588L8.54906 18.7313L13.6718 15.7279L13.5706 15.5554ZM13.5212 9.93515V15.6416H13.7212V9.93515H13.5212ZM7.77991 6.64269L13.5708 10.0215L13.6716 9.84878L7.8807 6.46994L7.77991 6.64269ZM7.7303 1V6.55631H7.9303V1H7.7303ZM2.31293 5.74142L6.76748 3.11343L6.66585 2.94118L2.21131 5.56916L2.31293 5.74142ZM2.36212 9.93515V5.65529H2.16212V9.93515H2.36212ZM7.95507 13.1526L2.31265 9.84886L2.21159 10.0215L7.85402 13.3252L7.95507 13.1526ZM8.00455 17.5939V13.2389H7.80455V17.5939H8.00455ZM12.3083 14.8797L7.85373 17.5077L7.95536 17.68L12.4099 15.052L12.3083 14.8797ZM12.2591 10.6109V14.9659H12.4591V10.6109H12.2591ZM6.66614 7.39346L12.3086 10.6972L12.4096 10.5246L6.76719 7.22087L6.66614 7.39346ZM6.61667 3.0273V7.30717H6.81667V3.0273H6.61667ZM6.76748 13.9036L2.31293 11.2756L2.21131 11.4479L6.66585 14.0759L6.76748 13.9036ZM6.81667 17.5939V13.9898H6.61667V17.5939H6.81667ZM2.21131 15.052L6.66585 17.68L6.76748 17.5077L2.31293 14.8797L2.21131 15.052ZM2.16212 11.3618V14.9659H2.36212V11.3618H2.16212ZM29.0821 4.93463C29.9777 4.93463 30.8428 5.1059 31.6779 5.44868L31.7539 5.26365C30.8948 4.91106 30.004 4.73463 29.0821 4.73463V4.93463ZM31.6794 5.44925C32.5135 5.77672 33.2488 6.2603 33.886 6.90059L34.0278 6.75952C33.3712 6.09976 32.6125 5.60075 31.7524 5.26308L31.6794 5.44925ZM33.8861 6.90067C35.2978 8.31601 36.0055 10.1263 36.0055 12.3401H36.2055C36.2055 10.0794 35.4808 8.2163 34.0277 6.75944L33.8861 6.90067ZM36.0055 12.3401C36.0055 14.5539 35.2978 16.3643 33.8861 17.7796L34.0277 17.9208C35.4808 16.464 36.2055 14.6009 36.2055 12.3401H36.0055ZM33.886 17.7797C33.2485 18.4203 32.5127 18.9116 31.6779 19.2543L31.7539 19.4393C32.6133 19.0865 33.3715 18.5802 34.0278 17.9207L33.886 17.7797ZM31.6794 19.2537C30.8439 19.5817 29.9783 19.7456 29.0821 19.7456V19.9456C30.0034 19.9456 30.8937 19.777 31.7524 19.4399L31.6794 19.2537ZM29.0821 19.7456H22.6364V19.9456H29.0821V19.7456ZM22.7364 19.8456V4.83463H22.5364V19.8456H22.7364ZM22.6364 4.93463H29.0821V4.73463H22.6364V4.93463ZM29.0128 18.3357C30.6423 18.3357 31.972 17.7421 32.9931 16.5549L32.8414 16.4245C31.8602 17.5653 30.587 18.1357 29.0128 18.1357V18.3357ZM32.9928 16.5552C33.9807 15.4163 34.4728 14.009 34.4728 12.3401H34.2728C34.2728 13.9667 33.7945 15.3258 32.8417 16.4242L32.9928 16.5552ZM34.4728 12.3401C34.4728 10.6712 33.9807 9.26396 32.9928 8.12504L32.8417 8.25609C33.7945 9.35447 34.2728 10.7136 34.2728 12.3401H34.4728ZM32.9931 8.12536C31.972 6.93821 30.6423 6.34458 29.0128 6.34458V6.54458C30.587 6.54458 31.8602 7.11494 32.8414 8.25578L32.9931 8.12536ZM29.0128 6.34458H24.3691V6.54458H29.0128V6.34458ZM24.2691 6.44458V18.2357H24.4691V6.44458H24.2691ZM24.3691 18.3357H29.0128V18.1357H24.3691V18.3357ZM43.6857 18.5851C44.4772 18.5851 45.163 18.4235 45.7393 18.0959C46.316 17.768 46.7772 17.277 47.1238 16.6275L46.9474 16.5333C46.6163 17.1536 46.1804 17.615 45.6404 17.922C45.1001 18.2293 44.4498 18.3851 43.6857 18.3851V18.5851ZM47.0356 16.6804H48.9301V16.4804H47.0356V16.6804ZM48.8369 16.5441C48.4433 17.5545 47.8159 18.3702 46.9539 18.9936L47.0711 19.1557C47.9649 18.5093 48.616 17.6622 49.0233 16.6167L48.8369 16.5441ZM46.9532 18.9941C46.1122 19.6133 45.018 19.927 43.6626 19.927V20.127C45.0487 20.127 46.1878 19.8059 47.0718 19.1552L46.9532 18.9941ZM43.6626 19.927C41.9461 19.927 40.5562 19.369 39.4836 18.257L39.3396 18.3958C40.4541 19.5513 41.8981 20.127 43.6626 20.127V19.927ZM39.4836 18.257C38.4404 17.1738 37.9175 15.8162 37.9175 14.1768H37.7175C37.7175 15.8631 38.2573 17.2719 39.3396 18.3958L39.4836 18.257ZM37.9175 14.1768C37.9175 12.5207 38.4183 11.163 39.4154 10.0955L39.2692 9.959C38.2331 11.0683 37.7175 12.477 37.7175 14.1768H37.9175ZM39.4147 10.0962C40.472 8.98441 41.8463 8.42662 43.547 8.42662V8.22662C41.7977 8.22662 40.3689 8.80259 39.2698 9.95835L39.4147 10.0962ZM43.547 8.42662C45.2478 8.42662 46.6221 8.98441 47.6794 10.0962L47.8243 9.95835C46.7252 8.80259 45.2964 8.22662 43.547 8.22662V8.42662ZM47.6787 10.0955C48.6757 11.163 49.1766 12.5207 49.1766 14.1768H49.3766C49.3766 12.477 48.861 11.0683 47.8249 9.959L47.6787 10.0955ZM49.1766 14.1768V14.8571H49.3766V14.1768H49.1766ZM49.2766 14.7571H39.5964V14.9571H49.2766V14.7571ZM39.4971 14.8688C39.6229 15.9338 40.0565 16.8176 40.7986 17.5149L40.9356 17.3692C40.2299 16.706 39.8163 15.8665 39.6957 14.8454L39.4971 14.8688ZM40.7986 17.5149C41.5587 18.2299 42.5238 18.5851 43.6857 18.5851V18.3851C42.568 18.3851 41.654 18.045 40.9356 17.3692L40.7986 17.5149ZM43.547 9.76853C42.4621 9.76853 41.5443 10.1011 40.8003 10.7692L40.9339 10.918C41.6377 10.286 42.5065 9.96853 43.547 9.96853V9.76853ZM40.7996 10.7698C40.1034 11.4065 39.6778 12.2367 39.5207 13.2546L39.7183 13.2851C39.8693 12.3075 40.2754 11.5202 40.9346 10.9174L40.7996 10.7698ZM39.6195 13.3698H47.4746V13.1698H39.6195V13.3698ZM47.5734 13.2546C47.4163 12.2367 46.9907 11.4065 46.2945 10.7698L46.1595 10.9174C46.8187 11.5202 47.2248 12.3075 47.3757 13.2851L47.5734 13.2546ZM46.2938 10.7692C45.5498 10.1011 44.632 9.76853 43.547 9.76853V9.96853C44.5876 9.96853 45.4564 10.286 46.1602 10.918L46.2938 10.7692ZM52.606 19.8456V10.0046H52.406V19.8456H52.606ZM52.506 9.90458H50.1495V10.1046H52.506V9.90458ZM50.2495 10.0046V8.50802H50.0495V10.0046H50.2495ZM50.1495 8.60802H52.506V8.40802H50.1495V8.60802ZM52.606 8.50802V4.44916H52.406V8.50802H52.606ZM52.506 4.54916H54.2387V4.34916H52.506V4.54916ZM54.1387 4.44916V8.50802H54.3387V4.44916H54.1387ZM54.2387 8.60802H56.8956V8.40802H54.2387V8.60802ZM56.7956 8.50802V10.0046H56.9956V8.50802H56.7956ZM56.8956 9.90458H54.2387V10.1046H56.8956V9.90458ZM54.1387 10.0046V19.8456H54.3387V10.0046H54.1387ZM54.2387 19.7456H52.506V19.9456H54.2387V19.7456ZM67.4965 17.9746C66.5938 19.2741 65.2483 19.927 63.4432 19.927V20.127C65.3038 20.127 66.7153 19.4497 67.6608 18.0887L67.4965 17.9746ZM63.4432 19.927C61.8052 19.927 60.4773 19.3701 59.4505 18.2585L59.3036 18.3942C60.3714 19.5502 61.7543 20.127 63.4432 20.127V19.927ZM59.451 18.2591C58.4528 17.1606 57.9522 15.8021 57.9522 14.1768H57.7522C57.7522 15.847 58.2682 17.2549 59.303 18.3936L59.451 18.2591ZM57.9522 14.1768C57.9522 12.5515 58.4528 11.193 59.451 10.0945L59.303 9.96001C58.2682 11.0988 57.7522 12.5067 57.7522 14.1768H57.9522ZM59.4505 10.0951C60.4764 8.98457 61.8422 8.42662 63.5587 8.42662V8.22662C61.7943 8.22662 60.3724 8.80243 59.3036 9.9594L59.4505 10.0951ZM63.5587 8.42662C65.2688 8.42662 66.5771 9.08522 67.4966 10.402L67.6606 10.2875C66.7011 8.91341 65.3295 8.22662 63.5587 8.22662V8.42662ZM67.6786 10.3447V8.50802H67.4786V10.3447H67.6786ZM67.5786 8.60802H69.3114V8.40802H67.5786V8.60802ZM69.2114 8.50802V19.8456H69.4114V8.50802H69.2114ZM69.3114 19.7456H67.5786V19.9456H69.3114V19.7456ZM67.6786 19.8456V18.0316H67.4786V19.8456H67.6786ZM63.6742 18.5851C64.9471 18.5851 65.9621 18.1519 66.7074 17.2803L66.5554 17.1503C65.8529 17.9718 64.8965 18.3851 63.6742 18.3851V18.5851ZM66.707 17.2807C67.4183 16.4586 67.771 15.4213 67.771 14.1768H67.5711C67.5711 15.3812 67.2307 16.3697 66.5558 17.1499L66.707 17.2807ZM67.771 14.1768C67.771 12.9323 67.4183 11.8951 66.707 11.0729L66.5558 11.2038C67.2307 11.984 67.5711 12.9724 67.5711 14.1768H67.771ZM66.7074 11.0734C65.9621 10.2018 64.9471 9.76853 63.6742 9.76853V9.96853C64.8965 9.96853 65.8529 10.3818 66.5554 11.2033L66.7074 11.0734ZM63.6742 9.76853C62.4163 9.76853 61.3875 10.202 60.5968 11.0711L60.7448 11.2056C61.4943 10.3817 62.4678 9.96853 63.6742 9.96853V9.76853ZM60.5966 11.0713C59.8539 11.8934 59.485 12.9312 59.485 14.1768H59.6849C59.6849 12.9736 60.0399 11.9857 60.745 11.2054L60.5966 11.0713ZM59.485 14.1768C59.485 15.4225 59.8539 16.4603 60.5966 17.2823L60.745 17.1483C60.0399 16.3679 59.6849 15.3801 59.6849 14.1768H59.485ZM60.5968 17.2826C61.3875 18.1517 62.4163 18.5851 63.6742 18.5851V18.3851C62.4678 18.3851 61.4943 17.972 60.7448 17.148L60.5968 17.2826ZM74.0412 19.7456H72.3085V19.9456H74.0412V19.7456ZM72.4085 19.8456V3.97298H72.2085V19.8456H72.4085ZM72.3085 4.07298H74.0412V3.87298H72.3085V4.07298ZM73.9412 3.97298V19.8456H74.1412V3.97298H73.9412ZM77.0464 8.60802H78.7791V8.40802H77.0464V8.60802ZM78.6791 8.50802V19.8456H78.8791V8.50802H78.6791ZM78.7791 19.7456H77.0464V19.9456H78.7791V19.7456ZM77.1464 19.8456V8.50802H76.9464V19.8456H77.1464ZM78.7485 4.38113V6.6033H78.9484V4.38113H78.7485ZM78.8484 6.5033H76.9771V6.7033H78.8484V6.5033ZM77.0771 6.6033V4.38113H76.8771V6.6033H77.0771ZM76.9771 4.48113H78.8484V4.28113H76.9771V4.48113ZM87.7836 8.32662V10.0273H87.9836V8.32662H87.7836ZM87.8836 9.92726H87.6757V10.1273H87.8836V9.92726ZM87.6757 9.92726C86.3974 9.92726 85.3522 10.4326 84.5479 11.4387L84.7041 11.5636C85.4709 10.6045 86.4588 10.1273 87.6757 10.1273V9.92726ZM84.5475 11.4392C83.793 12.3957 83.4171 13.5367 83.4171 14.8571H83.6171C83.6171 13.5774 83.9804 12.4811 84.7046 11.5631L84.5475 11.4392ZM83.4171 14.8571V19.8456H83.6171V14.8571H83.4171ZM83.5171 19.7456H81.7843V19.9456H83.5171V19.7456ZM81.8843 19.8456V8.50802H81.6843V19.8456H81.8843ZM81.7843 8.60802H83.5171V8.40802H81.7843V8.60802ZM83.4171 8.50802V11.2971H83.6171V8.50802H83.4171ZM83.6125 11.327C83.9728 10.1778 84.7521 9.3293 85.9612 8.78048L85.8785 8.59836C84.6232 9.16819 83.8007 10.0581 83.4217 11.2672L83.6125 11.327ZM85.9628 8.77972C86.4544 8.54579 87.0549 8.42662 87.7681 8.42662V8.22662C87.0334 8.22662 86.4018 8.34931 85.8768 8.59913L85.9628 8.77972ZM87.7681 8.42662H87.8836V8.22662H87.7681V8.42662ZM98.1889 19.8456V18.077H97.9889V19.8456H98.1889ZM98.0094 18.0162C97.601 18.5506 97.1018 19.0037 96.5108 19.3755L96.6173 19.5448C97.2277 19.1608 97.7449 18.6917 98.1683 18.1377L98.0094 18.0162ZM96.5108 19.3755C95.9274 19.7425 95.2608 19.927 94.5079 19.927V20.127C95.2951 20.127 95.9993 19.9336 96.6173 19.5448L96.5108 19.3755ZM94.5079 19.927C93.7465 19.927 93.0969 19.8224 92.5567 19.6162L92.4853 19.803C93.054 20.0201 93.729 20.127 94.5079 20.127V19.927ZM92.5567 19.6162C92.0156 19.4096 91.5426 19.1001 91.1368 18.6871L90.9942 18.8273C91.4201 19.2608 91.9174 19.5862 92.4853 19.803L92.5567 19.6162ZM91.135 18.6853C90.2023 17.7847 89.7331 16.5952 89.7331 15.1065H89.5331C89.5331 16.6412 90.0188 17.8855 90.996 18.8292L91.135 18.6853ZM89.7331 15.1065V8.50802H89.5331V15.1065H89.7331ZM89.6331 8.60802H91.3658V8.40802H89.6331V8.60802ZM91.2658 8.50802V15.0612H91.4658V8.50802H91.2658ZM91.2658 15.0612C91.2658 16.1244 91.5726 16.9828 92.1951 17.625L92.3387 17.4858C91.7597 16.8885 91.4658 16.084 91.4658 15.0612H91.2658ZM92.1951 17.625C92.8167 18.2664 93.6214 18.5851 94.6003 18.5851V18.3851C93.6692 18.3851 92.9184 18.084 92.3387 17.4858L92.1951 17.625ZM94.6003 18.5851C95.5947 18.5851 96.4436 18.2588 97.1407 17.6057L97.0039 17.4598C96.3457 18.0765 95.5465 18.3851 94.6003 18.3851V18.5851ZM97.1415 17.6049C97.8405 16.9345 98.1889 16.0762 98.1889 15.0385H97.9889C97.9889 16.0264 97.6595 16.831 97.0031 17.4606L97.1415 17.6049ZM98.1889 15.0385V8.50802H97.9889V15.0385H98.1889ZM98.0889 8.60802H99.8216V8.40802H98.0889V8.60802ZM99.7216 8.50802V19.8456H99.9216V8.50802H99.7216ZM99.8216 19.7456H98.0889V19.9456H99.8216V19.7456ZM104.653 10.2832C105.403 9.04531 106.54 8.42662 108.079 8.42662V8.22662C106.475 8.22662 105.271 8.87774 104.482 10.1795L104.653 10.2832ZM108.079 8.42662C108.83 8.42662 109.52 8.62542 110.151 9.02342L110.258 8.85428C109.595 8.43597 108.868 8.22662 108.079 8.22662V8.42662ZM110.153 9.02485C110.798 9.40766 111.302 9.95245 111.663 10.6622L111.841 10.5714C111.464 9.82996 110.935 9.25611 110.255 8.85285L110.153 9.02485ZM111.84 10.665C112.351 9.73567 113.147 9.0705 114.236 8.66989L114.167 8.4822C113.037 8.8979 112.201 9.59324 111.665 10.5686L111.84 10.665ZM114.236 8.66976C114.67 8.50825 115.158 8.42662 115.703 8.42662V8.22662C115.138 8.22662 114.626 8.31127 114.166 8.48233L114.236 8.66976ZM115.703 8.42662C116.259 8.42662 116.784 8.53718 117.279 8.75807L117.361 8.57542C116.839 8.34281 116.286 8.22662 115.703 8.22662V8.42662ZM117.283 8.75946C117.793 8.96588 118.244 9.268 118.635 9.66647L118.778 9.5264C118.368 9.10856 117.894 8.79088 117.358 8.57403L117.283 8.75946ZM118.634 9.66534C119.477 10.5521 119.9 11.6604 119.9 12.9977H120.1C120.1 11.614 119.66 10.4548 118.779 9.52752L118.634 9.66534ZM119.9 12.9977V19.8456H120.1V12.9977H119.9ZM120 19.7456H118.267V19.9456H120V19.7456ZM118.367 19.8456V13.0431H118.167V19.8456H118.367ZM118.367 13.0431C118.367 12.0854 118.091 11.2895 117.533 10.6636L117.384 10.7967C117.904 11.3802 118.167 12.1263 118.167 13.0431H118.367ZM117.532 10.6618C116.972 10.066 116.26 9.76853 115.402 9.76853V9.96853C116.208 9.96853 116.867 10.2456 117.386 10.7986L117.532 10.6618ZM115.402 9.76853C114.501 9.76853 113.744 10.0565 113.139 10.6352L113.277 10.7798C113.842 10.2399 114.548 9.96853 115.402 9.96853V9.76853ZM113.139 10.6344C112.499 11.2312 112.184 12.0459 112.184 13.0657H112.384C112.384 12.0902 112.684 11.3327 113.276 10.7807L113.139 10.6344ZM112.184 13.0657V19.8456H112.384V13.0657H112.184ZM112.284 19.7456H110.551V19.9456H112.284V19.7456ZM110.651 19.8456V13.0431H110.451V19.8456H110.651ZM110.651 13.0431C110.651 12.0854 110.375 11.2895 109.817 10.6636L109.668 10.7967C110.188 11.3802 110.451 12.1263 110.451 13.0431H110.651ZM109.815 10.6618C109.256 10.066 108.544 9.76853 107.686 9.76853V9.96853C108.492 9.96853 109.15 10.2456 109.669 10.7986L109.815 10.6618ZM107.686 9.76853C106.785 9.76853 106.028 10.0565 105.422 10.6352L105.56 10.7798C106.125 10.2399 106.831 9.96853 107.686 9.96853V9.76853ZM105.423 10.6344C104.783 11.2312 104.467 12.0459 104.467 13.0657H104.667C104.667 12.0902 104.967 11.3327 105.559 10.7807L105.423 10.6344ZM104.467 13.0657V19.8456H104.667V13.0657H104.467ZM104.567 19.7456H102.834V19.9456H104.567V19.7456ZM102.934 19.8456V8.50802H102.734V19.8456H102.934ZM102.834 8.60802H104.567V8.40802H102.834V8.60802ZM104.467 8.50802V10.2313H104.667V8.50802H104.467Z" fill="#222222" mask="url(#path-1-outside-1)"></path>
</svg>
