<svg xmlns="http://www.w3.org/2000/svg" width="98" height="56" viewBox="0 0 98 56" fill="none"><path d="M0.44 1.16H9.116V1.448L6.164 1.736V25.424L9.116 25.712V26H0.44V25.712L3.392 25.424V1.736L0.44 1.448V1.16ZM26.7304 25.712V26H22.1224L16.0384 18.62L15.0304 19.844V25.424L17.1904 25.712V26H10.4944V25.712L12.6904 25.424V2.492L10.5664 1.7V1.448L14.7424 0.0439994H15.0304V19.196L20.1424 13.04C20.5744 12.488 20.7904 12.104 20.7904 11.888C20.7904 11.672 20.6344 11.504 20.3224 11.384C20.0104 11.264 19.4224 11.144 18.5584 11.024V10.736H24.6424V11.024C23.6824 11.192 22.9264 11.42 22.3744 11.708C21.8464 11.972 21.3424 12.392 20.8624 12.968L17.6224 16.784L24.7504 25.424L26.7304 25.712ZM38.0985 21.896L38.2425 21.968L38.0985 22.364C37.6185 23.636 36.8985 24.62 35.9385 25.316C35.0025 26.012 33.8745 26.36 32.5545 26.36C31.2585 26.36 30.1065 26.024 29.0985 25.352C28.0905 24.68 27.2985 23.744 26.7225 22.544C26.1705 21.344 25.8945 19.964 25.8945 18.404C25.8945 16.844 26.1945 15.452 26.7945 14.228C27.3945 13.004 28.2465 12.056 29.3505 11.384C30.4545 10.712 31.7145 10.376 33.1305 10.376C34.8105 10.376 36.0945 10.88 36.9825 11.888C37.8945 12.872 38.3625 14.312 38.3865 16.208L38.1705 16.388H28.4505C28.4025 17.012 28.3785 17.504 28.3785 17.864C28.3785 20.048 28.8225 21.716 29.7105 22.868C30.5985 23.996 31.8345 24.56 33.4185 24.56C34.2345 24.56 35.0145 24.38 35.7585 24.02C36.5265 23.636 37.1985 23.072 37.7745 22.328L38.0985 21.896ZM32.7345 10.772C31.6065 10.772 30.6705 11.24 29.9265 12.176C29.1825 13.112 28.7025 14.384 28.4865 15.992L35.4705 15.74C35.5425 15.452 35.5785 14.972 35.5785 14.3C35.5785 13.004 35.3265 12.092 34.8225 11.564C34.3425 11.036 33.6465 10.772 32.7345 10.772ZM55.0132 25.712V26H48.3172V25.712L50.5132 25.424V16.244C50.5132 15.308 50.4892 14.612 50.4412 14.156C50.3932 13.7 50.2972 13.316 50.1532 13.004C49.9612 12.596 49.6372 12.284 49.1812 12.068C48.7492 11.828 48.2452 11.708 47.6692 11.708C46.4452 11.708 45.3532 12.224 44.3932 13.256V25.424L46.5892 25.712V26H39.8572V25.712L42.0532 25.424V13.004L39.9292 12.212V11.96L43.9972 10.556H44.2852V12.824C45.8212 11.192 47.4292 10.376 49.1092 10.376C49.8532 10.376 50.5252 10.544 51.1252 10.88C51.7492 11.192 52.1932 11.612 52.4572 12.14C52.6252 12.452 52.7332 12.884 52.7812 13.436C52.8292 13.964 52.8532 14.9 52.8532 16.244V25.424L55.0132 25.712ZM12.752 41.896C14.84 42.184 16.436 42.868 17.54 43.948C18.644 45.028 19.196 46.444 19.196 48.196C19.196 50.116 18.524 51.736 17.18 53.056C15.86 54.352 13.82 55 11.06 55H0.44V54.712L3.392 54.424V30.736L0.44 30.448V30.16H9.404C12.236 30.16 14.396 30.664 15.884 31.672C17.372 32.68 18.116 34.144 18.116 36.064C18.116 37.6 17.648 38.872 16.712 39.88C15.776 40.888 14.456 41.512 12.752 41.752V41.896ZM6.164 30.592V41.644H10.34C11.948 41.644 13.1 41.176 13.796 40.24C14.516 39.304 14.876 37.912 14.876 36.064C14.876 32.416 13.016 30.592 9.296 30.592H6.164ZM10.196 54.568C13.916 54.568 15.776 52.48 15.776 48.304C15.776 46.12 15.308 44.536 14.372 43.552C13.436 42.568 12.044 42.076 10.196 42.076H6.164V54.568H10.196ZM25.0148 29.044H24.7268L20.5508 30.448V30.7L22.6748 31.492V54.424L20.4788 54.712V55H27.2108V54.712L25.0148 54.424V29.044ZM31.8064 55.252C30.8944 55.252 30.1384 54.94 29.5384 54.316C28.9624 53.668 28.6744 52.84 28.6744 51.832C28.6744 50.632 29.2144 49.672 30.2944 48.952C31.3984 48.232 33.2584 47.608 35.8744 47.08V43.804C35.8744 42.412 35.7184 41.452 35.4064 40.924C35.0944 40.372 34.5544 40.096 33.7864 40.096C33.0424 40.096 32.4424 40.3 31.9864 40.708C31.5304 41.092 31.3024 41.62 31.3024 42.292L31.3384 43.264C31.3384 43.864 31.2184 44.344 30.9784 44.704C30.7624 45.04 30.4504 45.208 30.0424 45.208C29.6824 45.208 29.3824 45.088 29.1424 44.848C28.9264 44.608 28.8184 44.296 28.8184 43.912C28.8184 43.336 29.0944 42.712 29.6464 42.04C30.2224 41.344 30.9544 40.768 31.8424 40.312C32.9224 39.712 34.0384 39.412 35.1904 39.412C35.8624 39.412 36.4264 39.544 36.8824 39.808C37.3624 40.072 37.7104 40.444 37.9264 40.924C38.0464 41.236 38.1184 41.62 38.1424 42.076C38.1904 42.532 38.2144 43.408 38.2144 44.704V51.58C38.2144 52.444 38.2984 53.044 38.4664 53.38C38.6344 53.692 38.9344 53.848 39.3664 53.848C40.0144 53.848 40.4944 53.62 40.8064 53.164L40.9504 53.236C40.6624 53.836 40.2784 54.304 39.7984 54.64C39.3184 54.952 38.8024 55.108 38.2504 55.108C37.6264 55.108 37.1104 54.928 36.7024 54.568C36.2944 54.184 36.0664 53.68 36.0184 53.056L35.9104 53.02C35.3584 53.716 34.7224 54.268 34.0024 54.676C33.2824 55.06 32.5504 55.252 31.8064 55.252ZM33.3544 53.884C33.8584 53.884 34.3264 53.776 34.7584 53.56C35.2144 53.32 35.5864 52.984 35.8744 52.552V47.476C34.6264 47.788 33.6544 48.1 32.9584 48.412C32.2864 48.724 31.8064 49.096 31.5184 49.528C31.2304 49.96 31.0864 50.5 31.0864 51.148C31.0864 51.988 31.2904 52.66 31.6984 53.164C32.1064 53.644 32.6584 53.884 33.3544 53.884ZM56.5249 54.712V55H49.8289V54.712L52.0249 54.424V45.244C52.0249 44.308 52.0009 43.612 51.9529 43.156C51.9049 42.7 51.8089 42.316 51.6649 42.004C51.4729 41.596 51.1489 41.284 50.6929 41.068C50.2609 40.828 49.7569 40.708 49.1809 40.708C47.9569 40.708 46.8649 41.224 45.9049 42.256V54.424L48.1009 54.712V55H41.3689V54.712L43.5649 54.424V42.004L41.4409 41.212V40.96L45.5089 39.556H45.7969V41.824C47.3329 40.192 48.9409 39.376 50.6209 39.376C51.3649 39.376 52.0369 39.544 52.6369 39.88C53.2609 40.192 53.7049 40.612 53.9689 41.14C54.1369 41.452 54.2449 41.884 54.2929 42.436C54.3409 42.964 54.3649 43.9 54.3649 45.244V54.424L56.5249 54.712ZM57.2418 40.096L57.3138 40.276H59.0058V51.796C59.0058 52.54 59.0898 53.14 59.2578 53.596C59.4258 54.052 59.7138 54.424 60.1218 54.712C60.7218 55.144 61.4058 55.36 62.1738 55.36C62.9178 55.36 63.6138 55.144 64.2618 54.712C64.9338 54.28 65.4498 53.692 65.8098 52.948L65.6658 52.84C65.2338 53.272 64.8378 53.584 64.4778 53.776C64.1178 53.968 63.7458 54.064 63.3618 54.064C62.5698 54.064 62.0298 53.776 61.7418 53.2C61.4778 52.792 61.3458 52.168 61.3458 51.328V40.312H65.2338L65.4498 39.736H61.3458V36.316L61.2018 36.28L57.2418 40.096ZM73.8586 39.376C75.2506 39.376 76.4866 39.712 77.5666 40.384C78.6466 41.056 79.4866 42.004 80.0866 43.228C80.6866 44.428 80.9866 45.808 80.9866 47.368C80.9866 48.928 80.6866 50.32 80.0866 51.544C79.4866 52.744 78.6466 53.68 77.5666 54.352C76.4866 55.024 75.2506 55.36 73.8586 55.36C72.4666 55.36 71.2306 55.024 70.1506 54.352C69.0706 53.68 68.2306 52.744 67.6306 51.544C67.0306 50.32 66.7306 48.928 66.7306 47.368C66.7306 45.808 67.0306 44.428 67.6306 43.228C68.2306 42.004 69.0706 41.056 70.1506 40.384C71.2306 39.712 72.4666 39.376 73.8586 39.376ZM69.3946 47.368C69.3946 49.768 69.7906 51.64 70.5826 52.984C71.3746 54.328 72.4666 55 73.8586 55C75.2506 55 76.3426 54.328 77.1346 52.984C77.9266 51.64 78.3226 49.768 78.3226 47.368C78.3226 44.968 77.9266 43.096 77.1346 41.752C76.3426 40.408 75.2506 39.736 73.8586 39.736C72.4666 39.736 71.3746 40.408 70.5826 41.752C69.7906 43.096 69.3946 44.968 69.3946 47.368ZM97.7477 54.712V55H91.0517V54.712L93.2477 54.424V45.244C93.2477 44.308 93.2237 43.612 93.1757 43.156C93.1277 42.7 93.0317 42.316 92.8877 42.004C92.6957 41.596 92.3717 41.284 91.9157 41.068C91.4837 40.828 90.9797 40.708 90.4037 40.708C89.1797 40.708 88.0877 41.224 87.1277 42.256V54.424L89.3237 54.712V55H82.5917V54.712L84.7877 54.424V42.004L82.6637 41.212V40.96L86.7317 39.556H87.0197V41.824C88.5557 40.192 90.1637 39.376 91.8437 39.376C92.5877 39.376 93.2597 39.544 93.8597 39.88C94.4837 40.192 94.9277 40.612 95.1917 41.14C95.3597 41.452 95.4677 41.884 95.5157 42.436C95.5637 42.964 95.5877 43.9 95.5877 45.244V54.424L97.7477 54.712Z" fill="#1B4A59"></path><path d="M57.1701 24.272C57.1701 23.744 57.3381 23.312 57.6741 22.976C58.0341 22.616 58.4901 22.436 59.0421 22.436C59.5941 22.436 60.0381 22.616 60.3741 22.976C60.7101 23.312 60.8781 23.744 60.8781 24.272C60.8781 24.8 60.7101 25.244 60.3741 25.604C60.0381 25.964 59.5941 26.144 59.0421 26.144C58.4901 26.144 58.0341 25.964 57.6741 25.604C57.3381 25.244 57.1701 24.8 57.1701 24.272Z" fill="#FCE8DE"></path></svg>